<svg xmlns="http://www.w3.org/2000/svg" xmlns:xlink="http://www.w3.org/1999/xlink" width="600" height="620" viewBox="0 0 600 620" role="img" aria-labelledby="title desc"><title id="title">The production kit: intelligence, experience and delivery</title><desc id="desc">Original Hazem Elerefy artwork. Decorative animation respects reduced-motion preferences.</desc><defs>
<linearGradient id="shade" x2="0" y2="1"><stop stop-color="#09090c" stop-opacity="0"/><stop offset="1" stop-color="#09090c"/></linearGradient>
<radialGradient id="aura"><stop stop-color="#e50914" stop-opacity=".48"/><stop offset="1" stop-color="#e50914" stop-opacity="0"/></radialGradient>
<radialGradient id="blue"><stop stop-color="#44bce4" stop-opacity=".42"/><stop offset="1" stop-color="#44bce4" stop-opacity="0"/></radialGradient>
<radialGradient id="violet"><stop stop-color="#8b55ed" stop-opacity=".45"/><stop offset="1" stop-color="#8b55ed" stop-opacity="0"/></radialGradient>
<clipPath id="bounds"><rect width="600" height="620" rx="8"/></clipPath></defs><style>
@keyframes pulse{0%,100%{opacity:.25}50%{opacity:.9}}
@keyframes spin{to{transform:rotate(360deg)}}
@keyframes orbit{0%,100%{transform:translateY(0)}50%{transform:translateY(-13px)}}
@keyframes scan{0%{transform:translateY(-220px);opacity:0}12%{opacity:.85}85%{opacity:.7}100%{transform:translateY(300px);opacity:0}}
@keyframes dash{to{stroke-dashoffset:-600}}
@keyframes ember{0%{transform:translate(0,0);opacity:0}18%{opacity:.85}82%{opacity:.6}100%{transform:translate(20px,-140px);opacity:0}}
@keyframes reveal{0%{transform:scaleX(0)}100%{transform:scaleX(1)}}
@keyframes runner{0%{transform:translateX(-170px)}100%{transform:translateX(1250px)}}
@keyframes opening{0%,22%{opacity:1}100%{opacity:0;visibility:hidden}}
@keyframes ribbon{0%{transform:translateY(430px)}45%{transform:translateY(0)}100%{transform:translateY(-430px)}}
.pulse{animation:pulse 4s ease-in-out infinite}
.orbit{animation:orbit 8s ease-in-out infinite}
.spin{animation:spin 30s linear infinite;transform-box:fill-box;transform-origin:center}
.flow{stroke-dasharray:8 28;animation:dash 14s linear infinite}
.scan{animation:scan 7s ease-in-out infinite}
.ember{animation:ember 6s linear infinite}
@media(prefers-reduced-motion:reduce){*{animation:none!important}.scan,.ember,.runner{opacity:0!important}}
</style><g clip-path="url(#bounds)"><rect width="600" height="620" fill="#09090c"/><g fill="#f3f0e8" stroke="#f3f0e8" stroke-width="0.5" aria-label="THE PRODUCTION KIT"><path d="M-6 1493H1257V1323H727V0H524V1323H-6Z" transform="translate(24.00 46) scale(0.013184 -0.013184)"/><path d="M201 1493H403V881H1137V1493H1339V0H1137V711H403V0H201Z" transform="translate(40.49 46) scale(0.013184 -0.013184)"/><path d="M201 1493H1145V1323H403V881H1114V711H403V170H1163V0H201Z" transform="translate(60.80 46) scale(0.013184 -0.013184)"/><path d="M403 1327V766H657Q798 766 875.0 839.0Q952 912 952 1047Q952 1181 875.0 1254.0Q798 1327 657 1327ZM201 1493H657Q908 1493 1036.5 1379.5Q1165 1266 1165 1047Q1165 826 1036.5 713.0Q908 600 657 600H403V0H201Z" transform="translate(86.44 46) scale(0.013184 -0.013184)"/><path d="M909 700Q974 678 1035.5 606.0Q1097 534 1159 408L1364 0H1147L956 383Q882 533 812.5 582.0Q743 631 623 631H403V0H201V1493H657Q913 1493 1039.0 1386.0Q1165 1279 1165 1063Q1165 922 1099.5 829.0Q1034 736 909 700ZM403 1327V797H657Q803 797 877.5 864.5Q952 932 952 1063Q952 1194 877.5 1260.5Q803 1327 657 1327Z" transform="translate(102.72 46) scale(0.013184 -0.013184)"/><path d="M807 1356Q587 1356 457.5 1192.0Q328 1028 328 745Q328 463 457.5 299.0Q587 135 807 135Q1027 135 1155.5 299.0Q1284 463 1284 745Q1284 1028 1155.5 1192.0Q1027 1356 807 1356ZM807 1520Q1121 1520 1309.0 1309.5Q1497 1099 1497 745Q1497 392 1309.0 181.5Q1121 -29 807 -29Q492 -29 303.5 181.0Q115 391 115 745Q115 1099 303.5 1309.5Q492 1520 807 1520Z" transform="translate(121.48 46) scale(0.013184 -0.013184)"/><path d="M403 1327V166H647Q956 166 1099.5 306.0Q1243 446 1243 748Q1243 1048 1099.5 1187.5Q956 1327 647 1327ZM201 1493H616Q1050 1493 1253.0 1312.5Q1456 1132 1456 748Q1456 362 1252.0 181.0Q1048 0 616 0H201Z" transform="translate(142.73 46) scale(0.013184 -0.013184)"/><path d="M178 1493H381V586Q381 346 468.0 240.5Q555 135 750 135Q944 135 1031.0 240.5Q1118 346 1118 586V1493H1321V561Q1321 269 1176.5 120.0Q1032 -29 750 -29Q467 -29 322.5 120.0Q178 269 178 561Z" transform="translate(163.52 46) scale(0.013184 -0.013184)"/><path d="M1319 1378V1165Q1217 1260 1101.5 1307.0Q986 1354 856 1354Q600 1354 464.0 1197.5Q328 1041 328 745Q328 450 464.0 293.5Q600 137 856 137Q986 137 1101.5 184.0Q1217 231 1319 326V115Q1213 43 1094.5 7.0Q976 -29 844 -29Q505 -29 310.0 178.5Q115 386 115 745Q115 1105 310.0 1312.5Q505 1520 844 1520Q978 1520 1096.5 1484.5Q1215 1449 1319 1378Z" transform="translate(183.28 46) scale(0.013184 -0.013184)"/><path d="M-6 1493H1257V1323H727V0H524V1323H-6Z" transform="translate(202.14 46) scale(0.013184 -0.013184)"/><path d="M201 1493H403V0H201Z" transform="translate(218.63 46) scale(0.013184 -0.013184)"/><path d="M807 1356Q587 1356 457.5 1192.0Q328 1028 328 745Q328 463 457.5 299.0Q587 135 807 135Q1027 135 1155.5 299.0Q1284 463 1284 745Q1284 1028 1155.5 1192.0Q1027 1356 807 1356ZM807 1520Q1121 1520 1309.0 1309.5Q1497 1099 1497 745Q1497 392 1309.0 181.5Q1121 -29 807 -29Q492 -29 303.5 181.0Q115 391 115 745Q115 1099 303.5 1309.5Q492 1520 807 1520Z" transform="translate(226.59 46) scale(0.013184 -0.013184)"/><path d="M201 1493H473L1135 244V1493H1331V0H1059L397 1249V0H201Z" transform="translate(247.84 46) scale(0.013184 -0.013184)"/><path d="M201 1493H403V862L1073 1493H1333L592 797L1386 0H1120L403 719V0H201Z" transform="translate(276.62 46) scale(0.013184 -0.013184)"/><path d="M201 1493H403V0H201Z" transform="translate(294.33 46) scale(0.013184 -0.013184)"/><path d="M-6 1493H1257V1323H727V0H524V1323H-6Z" transform="translate(302.29 46) scale(0.013184 -0.013184)"/></g><path d="M24 73L576 73" fill="none" stroke="#25252c" stroke-width="1" /><g fill="#e50914" aria-label="01"><path d="M651 1360Q495 1360 416.5 1206.5Q338 1053 338 745Q338 438 416.5 284.5Q495 131 651 131Q808 131 886.5 284.5Q965 438 965 745Q965 1053 886.5 1206.5Q808 1360 651 1360ZM651 1520Q902 1520 1034.5 1321.5Q1167 1123 1167 745Q1167 368 1034.5 169.5Q902 -29 651 -29Q400 -29 267.5 169.5Q135 368 135 745Q135 1123 267.5 1321.5Q400 1520 651 1520Z" transform="translate(24.00 104) scale(0.008789 -0.008789)"/><path d="M254 170H584V1309L225 1237V1421L582 1493H784V170H1114V0H254Z" transform="translate(35.45 104) scale(0.008789 -0.008789)"/></g><g fill="#e50914" stroke="#e50914" stroke-width="0.5" aria-label="INTELLIGENCE"><path d="M201 1493H403V0H201Z" transform="translate(65.00 104) scale(0.009766 -0.009766)"/><path d="M201 1493H473L1135 244V1493H1331V0H1059L397 1249V0H201Z" transform="translate(71.90 104) scale(0.009766 -0.009766)"/><path d="M-6 1493H1257V1323H727V0H524V1323H-6Z" transform="translate(87.86 104) scale(0.009766 -0.009766)"/><path d="M201 1493H1145V1323H403V881H1114V711H403V170H1163V0H201Z" transform="translate(101.08 104) scale(0.009766 -0.009766)"/><path d="M201 1493H403V170H1130V0H201Z" transform="translate(114.71 104) scale(0.009766 -0.009766)"/><path d="M201 1493H403V170H1130V0H201Z" transform="translate(126.86 104) scale(0.009766 -0.009766)"/><path d="M201 1493H403V0H201Z" transform="translate(139.00 104) scale(0.009766 -0.009766)"/><path d="M1219 213V614H889V780H1419V139Q1302 56 1161.0 13.5Q1020 -29 860 -29Q510 -29 312.5 175.5Q115 380 115 745Q115 1111 312.5 1315.5Q510 1520 860 1520Q1006 1520 1137.5 1484.0Q1269 1448 1380 1378V1163Q1268 1258 1142.0 1306.0Q1016 1354 877 1354Q603 1354 465.5 1201.0Q328 1048 328 745Q328 443 465.5 290.0Q603 137 877 137Q984 137 1068.0 155.5Q1152 174 1219 213Z" transform="translate(145.90 104) scale(0.009766 -0.009766)"/><path d="M201 1493H1145V1323H403V881H1114V711H403V170H1163V0H201Z" transform="translate(162.39 104) scale(0.009766 -0.009766)"/><path d="M201 1493H473L1135 244V1493H1331V0H1059L397 1249V0H201Z" transform="translate(176.03 104) scale(0.009766 -0.009766)"/><path d="M1319 1378V1165Q1217 1260 1101.5 1307.0Q986 1354 856 1354Q600 1354 464.0 1197.5Q328 1041 328 745Q328 450 464.0 293.5Q600 137 856 137Q986 137 1101.5 184.0Q1217 231 1319 326V115Q1213 43 1094.5 7.0Q976 -29 844 -29Q505 -29 310.0 178.5Q115 386 115 745Q115 1105 310.0 1312.5Q505 1520 844 1520Q978 1520 1096.5 1484.5Q1215 1449 1319 1378Z" transform="translate(191.99 104) scale(0.009766 -0.009766)"/><path d="M201 1493H1145V1323H403V881H1114V711H403V170H1163V0H201Z" transform="translate(206.96 104) scale(0.009766 -0.009766)"/></g><g fill="#f3f0e8" aria-label="Python · PyTorch · YOLO"><path d="M403 1327V766H657Q798 766 875.0 839.0Q952 912 952 1047Q952 1181 875.0 1254.0Q798 1327 657 1327ZM201 1493H657Q908 1493 1036.5 1379.5Q1165 1266 1165 1047Q1165 826 1036.5 713.0Q908 600 657 600H403V0H201Z" transform="translate(24.00 145) scale(0.011230 -0.011230)"/><path d="M659 -104Q581 -304 507.0 -365.0Q433 -426 309 -426H162V-272H270Q346 -272 388.0 -236.0Q430 -200 481 -66L514 18L61 1120H256L606 244L956 1120H1151Z" transform="translate(37.87 145) scale(0.011230 -0.011230)"/><path d="M375 1438V1120H754V977H375V369Q375 232 412.5 193.0Q450 154 565 154H754V0H565Q352 0 271.0 79.5Q190 159 190 369V977H55V1120H190V1438Z" transform="translate(51.48 145) scale(0.011230 -0.011230)"/><path d="M1124 676V0H940V670Q940 829 878.0 908.0Q816 987 692 987Q543 987 457.0 892.0Q371 797 371 633V0H186V1556H371V946Q437 1047 526.5 1097.0Q616 1147 733 1147Q926 1147 1025.0 1027.5Q1124 908 1124 676Z" transform="translate(60.50 145) scale(0.011230 -0.011230)"/><path d="M627 991Q479 991 393.0 875.5Q307 760 307 559Q307 358 392.5 242.5Q478 127 627 127Q774 127 860.0 243.0Q946 359 946 559Q946 758 860.0 874.5Q774 991 627 991ZM627 1147Q867 1147 1004.0 991.0Q1141 835 1141 559Q1141 284 1004.0 127.5Q867 -29 627 -29Q386 -29 249.5 127.5Q113 284 113 559Q113 835 249.5 991.0Q386 1147 627 1147Z" transform="translate(75.08 145) scale(0.011230 -0.011230)"/><path d="M1124 676V0H940V670Q940 829 878.0 908.0Q816 987 692 987Q543 987 457.0 892.0Q371 797 371 633V0H186V1120H371V946Q437 1047 526.5 1097.0Q616 1147 733 1147Q926 1147 1025.0 1027.5Q1124 908 1124 676Z" transform="translate(89.15 145) scale(0.011230 -0.011230)"/><path d="M219 838H430V584H219Z" transform="translate(111.04 145) scale(0.011230 -0.011230)"/><path d="M403 1327V766H657Q798 766 875.0 839.0Q952 912 952 1047Q952 1181 875.0 1254.0Q798 1327 657 1327ZM201 1493H657Q908 1493 1036.5 1379.5Q1165 1266 1165 1047Q1165 826 1036.5 713.0Q908 600 657 600H403V0H201Z" transform="translate(125.66 145) scale(0.011230 -0.011230)"/><path d="M659 -104Q581 -304 507.0 -365.0Q433 -426 309 -426H162V-272H270Q346 -272 388.0 -236.0Q430 -200 481 -66L514 18L61 1120H256L606 244L956 1120H1151Z" transform="translate(139.53 145) scale(0.011230 -0.011230)"/><path d="M-6 1493H1257V1323H727V0H524V1323H-6Z" transform="translate(153.14 145) scale(0.011230 -0.011230)"/><path d="M627 991Q479 991 393.0 875.5Q307 760 307 559Q307 358 392.5 242.5Q478 127 627 127Q774 127 860.0 243.0Q946 359 946 559Q946 758 860.0 874.5Q774 991 627 991ZM627 1147Q867 1147 1004.0 991.0Q1141 835 1141 559Q1141 284 1004.0 127.5Q867 -29 627 -29Q386 -29 249.5 127.5Q113 284 113 559Q113 835 249.5 991.0Q386 1147 627 1147Z" transform="translate(167.19 145) scale(0.011230 -0.011230)"/><path d="M842 948Q811 966 774.5 974.5Q738 983 694 983Q538 983 454.5 881.5Q371 780 371 590V0H186V1120H371V946Q429 1048 522.0 1097.5Q615 1147 748 1147Q767 1147 790.0 1144.5Q813 1142 841 1137Z" transform="translate(181.26 145) scale(0.011230 -0.011230)"/><path d="M999 1077V905Q921 948 842.5 969.5Q764 991 684 991Q505 991 406.0 877.5Q307 764 307 559Q307 354 406.0 240.5Q505 127 684 127Q764 127 842.5 148.5Q921 170 999 213V43Q922 7 839.5 -11.0Q757 -29 664 -29Q411 -29 262.0 130.0Q113 289 113 559Q113 833 263.5 990.0Q414 1147 676 1147Q761 1147 842.0 1129.5Q923 1112 999 1077Z" transform="translate(190.72 145) scale(0.011230 -0.011230)"/><path d="M1124 676V0H940V670Q940 829 878.0 908.0Q816 987 692 987Q543 987 457.0 892.0Q371 797 371 633V0H186V1556H371V946Q437 1047 526.5 1097.0Q616 1147 733 1147Q926 1147 1025.0 1027.5Q1124 908 1124 676Z" transform="translate(203.36 145) scale(0.011230 -0.011230)"/><path d="M219 838H430V584H219Z" transform="translate(225.25 145) scale(0.011230 -0.011230)"/><path d="M-4 1493H213L627 879L1038 1493H1255L727 711V0H524V711Z" transform="translate(239.87 145) scale(0.011230 -0.011230)"/><path d="M807 1356Q587 1356 457.5 1192.0Q328 1028 328 745Q328 463 457.5 299.0Q587 135 807 135Q1027 135 1155.5 299.0Q1284 463 1284 745Q1284 1028 1155.5 1192.0Q1027 1356 807 1356ZM807 1520Q1121 1520 1309.0 1309.5Q1497 1099 1497 745Q1497 392 1309.0 181.5Q1121 -29 807 -29Q492 -29 303.5 181.0Q115 391 115 745Q115 1099 303.5 1309.5Q492 1520 807 1520Z" transform="translate(253.92 145) scale(0.011230 -0.011230)"/><path d="M201 1493H403V170H1130V0H201Z" transform="translate(272.02 145) scale(0.011230 -0.011230)"/><path d="M807 1356Q587 1356 457.5 1192.0Q328 1028 328 745Q328 463 457.5 299.0Q587 135 807 135Q1027 135 1155.5 299.0Q1284 463 1284 745Q1284 1028 1155.5 1192.0Q1027 1356 807 1356ZM807 1520Q1121 1520 1309.0 1309.5Q1497 1099 1497 745Q1497 392 1309.0 181.5Q1121 -29 807 -29Q492 -29 303.5 181.0Q115 391 115 745Q115 1099 303.5 1309.5Q492 1520 807 1520Z" transform="translate(284.84 145) scale(0.011230 -0.011230)"/></g><g fill="#f3f0e8" aria-label="Scikit-learn · Pandas · SQL"><path d="M1096 1444V1247Q981 1302 879.0 1329.0Q777 1356 682 1356Q517 1356 427.5 1292.0Q338 1228 338 1110Q338 1011 397.5 960.5Q457 910 623 879L745 854Q971 811 1078.5 702.5Q1186 594 1186 412Q1186 195 1040.5 83.0Q895 -29 614 -29Q508 -29 388.5 -5.0Q269 19 141 66V274Q264 205 382.0 170.0Q500 135 614 135Q787 135 881.0 203.0Q975 271 975 397Q975 507 907.5 569.0Q840 631 686 662L563 686Q337 731 236.0 827.0Q135 923 135 1094Q135 1292 274.5 1406.0Q414 1520 659 1520Q764 1520 873.0 1501.0Q982 1482 1096 1444Z" transform="translate(24.00 174) scale(0.011230 -0.011230)"/><path d="M999 1077V905Q921 948 842.5 969.5Q764 991 684 991Q505 991 406.0 877.5Q307 764 307 559Q307 354 406.0 240.5Q505 127 684 127Q764 127 842.5 148.5Q921 170 999 213V43Q922 7 839.5 -11.0Q757 -29 664 -29Q411 -29 262.0 130.0Q113 289 113 559Q113 833 263.5 990.0Q414 1147 676 1147Q761 1147 842.0 1129.5Q923 1112 999 1077Z" transform="translate(38.60 174) scale(0.011230 -0.011230)"/><path d="M193 1120H377V0H193ZM193 1556H377V1323H193Z" transform="translate(51.25 174) scale(0.011230 -0.011230)"/><path d="M186 1556H371V637L920 1120H1155L561 596L1180 0H940L371 547V0H186Z" transform="translate(57.64 174) scale(0.011230 -0.011230)"/><path d="M193 1120H377V0H193ZM193 1556H377V1323H193Z" transform="translate(70.95 174) scale(0.011230 -0.011230)"/><path d="M375 1438V1120H754V977H375V369Q375 232 412.5 193.0Q450 154 565 154H754V0H565Q352 0 271.0 79.5Q190 159 190 369V977H55V1120H190V1438Z" transform="translate(77.34 174) scale(0.011230 -0.011230)"/><path d="M100 643H639V479H100Z" transform="translate(86.36 174) scale(0.011230 -0.011230)"/><path d="M193 1556H377V0H193Z" transform="translate(94.66 174) scale(0.011230 -0.011230)"/><path d="M1151 606V516H305Q317 326 419.5 226.5Q522 127 705 127Q811 127 910.5 153.0Q1010 179 1108 231V57Q1009 15 905.0 -7.0Q801 -29 694 -29Q426 -29 269.5 127.0Q113 283 113 549Q113 824 261.5 985.5Q410 1147 662 1147Q888 1147 1019.5 1001.5Q1151 856 1151 606ZM967 660Q965 811 882.5 901.0Q800 991 664 991Q510 991 417.5 904.0Q325 817 311 659Z" transform="translate(101.05 174) scale(0.011230 -0.011230)"/><path d="M702 563Q479 563 393.0 512.0Q307 461 307 338Q307 240 371.5 182.5Q436 125 547 125Q700 125 792.5 233.5Q885 342 885 522V563ZM1069 639V0H885V170Q822 68 728.0 19.5Q634 -29 498 -29Q326 -29 224.5 67.5Q123 164 123 326Q123 515 249.5 611.0Q376 707 627 707H885V725Q885 852 801.5 921.5Q718 991 567 991Q471 991 380.0 968.0Q289 945 205 899V1069Q306 1108 401.0 1127.5Q496 1147 586 1147Q829 1147 949.0 1021.0Q1069 895 1069 639Z" transform="translate(115.20 174) scale(0.011230 -0.011230)"/><path d="M842 948Q811 966 774.5 974.5Q738 983 694 983Q538 983 454.5 881.5Q371 780 371 590V0H186V1120H371V946Q429 1048 522.0 1097.5Q615 1147 748 1147Q767 1147 790.0 1144.5Q813 1142 841 1137Z" transform="translate(129.30 174) scale(0.011230 -0.011230)"/><path d="M1124 676V0H940V670Q940 829 878.0 908.0Q816 987 692 987Q543 987 457.0 892.0Q371 797 371 633V0H186V1120H371V946Q437 1047 526.5 1097.0Q616 1147 733 1147Q926 1147 1025.0 1027.5Q1124 908 1124 676Z" transform="translate(138.75 174) scale(0.011230 -0.011230)"/><path d="M219 838H430V584H219Z" transform="translate(160.64 174) scale(0.011230 -0.011230)"/><path d="M403 1327V766H657Q798 766 875.0 839.0Q952 912 952 1047Q952 1181 875.0 1254.0Q798 1327 657 1327ZM201 1493H657Q908 1493 1036.5 1379.5Q1165 1266 1165 1047Q1165 826 1036.5 713.0Q908 600 657 600H403V0H201Z" transform="translate(175.26 174) scale(0.011230 -0.011230)"/><path d="M702 563Q479 563 393.0 512.0Q307 461 307 338Q307 240 371.5 182.5Q436 125 547 125Q700 125 792.5 233.5Q885 342 885 522V563ZM1069 639V0H885V170Q822 68 728.0 19.5Q634 -29 498 -29Q326 -29 224.5 67.5Q123 164 123 326Q123 515 249.5 611.0Q376 707 627 707H885V725Q885 852 801.5 921.5Q718 991 567 991Q471 991 380.0 968.0Q289 945 205 899V1069Q306 1108 401.0 1127.5Q496 1147 586 1147Q829 1147 949.0 1021.0Q1069 895 1069 639Z" transform="translate(189.13 174) scale(0.011230 -0.011230)"/><path d="M1124 676V0H940V670Q940 829 878.0 908.0Q816 987 692 987Q543 987 457.0 892.0Q371 797 371 633V0H186V1120H371V946Q437 1047 526.5 1097.0Q616 1147 733 1147Q926 1147 1025.0 1027.5Q1124 908 1124 676Z" transform="translate(203.23 174) scale(0.011230 -0.011230)"/><path d="M930 950V1556H1114V0H930V168Q872 68 783.5 19.5Q695 -29 571 -29Q368 -29 240.5 133.0Q113 295 113 559Q113 823 240.5 985.0Q368 1147 571 1147Q695 1147 783.5 1098.5Q872 1050 930 950ZM303 559Q303 356 386.5 240.5Q470 125 616 125Q762 125 846.0 240.5Q930 356 930 559Q930 762 846.0 877.5Q762 993 616 993Q470 993 386.5 877.5Q303 762 303 559Z" transform="translate(217.80 174) scale(0.011230 -0.011230)"/><path d="M702 563Q479 563 393.0 512.0Q307 461 307 338Q307 240 371.5 182.5Q436 125 547 125Q700 125 792.5 233.5Q885 342 885 522V563ZM1069 639V0H885V170Q822 68 728.0 19.5Q634 -29 498 -29Q326 -29 224.5 67.5Q123 164 123 326Q123 515 249.5 611.0Q376 707 627 707H885V725Q885 852 801.5 921.5Q718 991 567 991Q471 991 380.0 968.0Q289 945 205 899V1069Q306 1108 401.0 1127.5Q496 1147 586 1147Q829 1147 949.0 1021.0Q1069 895 1069 639Z" transform="translate(232.40 174) scale(0.011230 -0.011230)"/><path d="M907 1087V913Q829 953 745.0 973.0Q661 993 571 993Q434 993 365.5 951.0Q297 909 297 825Q297 761 346.0 724.5Q395 688 543 655L606 641Q802 599 884.5 522.5Q967 446 967 309Q967 153 843.5 62.0Q720 -29 504 -29Q414 -29 316.5 -11.5Q219 6 111 41V231Q213 178 312.0 151.5Q411 125 508 125Q638 125 708.0 169.5Q778 214 778 295Q778 370 727.5 410.0Q677 450 506 487L442 502Q271 538 195.0 612.5Q119 687 119 817Q119 975 231.0 1061.0Q343 1147 549 1147Q651 1147 741.0 1132.0Q831 1117 907 1087Z" transform="translate(246.50 174) scale(0.011230 -0.011230)"/><path d="M219 838H430V584H219Z" transform="translate(265.79 174) scale(0.011230 -0.011230)"/><path d="M1096 1444V1247Q981 1302 879.0 1329.0Q777 1356 682 1356Q517 1356 427.5 1292.0Q338 1228 338 1110Q338 1011 397.5 960.5Q457 910 623 879L745 854Q971 811 1078.5 702.5Q1186 594 1186 412Q1186 195 1040.5 83.0Q895 -29 614 -29Q508 -29 388.5 -5.0Q269 19 141 66V274Q264 205 382.0 170.0Q500 135 614 135Q787 135 881.0 203.0Q975 271 975 397Q975 507 907.5 569.0Q840 631 686 662L563 686Q337 731 236.0 827.0Q135 923 135 1094Q135 1292 274.5 1406.0Q414 1520 659 1520Q764 1520 873.0 1501.0Q982 1482 1096 1444Z" transform="translate(280.41 174) scale(0.011230 -0.011230)"/><path d="M807 1356Q587 1356 457.5 1192.0Q328 1028 328 745Q328 463 457.5 299.0Q587 135 807 135Q1027 135 1155.5 299.0Q1284 463 1284 745Q1284 1028 1155.5 1192.0Q1027 1356 807 1356ZM1090 27 1356 -264H1112L891 -25Q858 -27 840.5 -28.0Q823 -29 807 -29Q492 -29 303.5 181.5Q115 392 115 745Q115 1099 303.5 1309.5Q492 1520 807 1520Q1121 1520 1309.0 1309.5Q1497 1099 1497 745Q1497 485 1392.5 300.0Q1288 115 1090 27Z" transform="translate(295.01 174) scale(0.011230 -0.011230)"/><path d="M201 1493H403V170H1130V0H201Z" transform="translate(313.12 174) scale(0.011230 -0.011230)"/></g><g fill="#f3f0e8" aria-label="n8n · AI agents · MCP"><path d="M1124 676V0H940V670Q940 829 878.0 908.0Q816 987 692 987Q543 987 457.0 892.0Q371 797 371 633V0H186V1120H371V946Q437 1047 526.5 1097.0Q616 1147 733 1147Q926 1147 1025.0 1027.5Q1124 908 1124 676Z" transform="translate(24.00 203) scale(0.011230 -0.011230)"/><path d="M651 709Q507 709 424.5 632.0Q342 555 342 420Q342 285 424.5 208.0Q507 131 651 131Q795 131 878.0 208.5Q961 286 961 420Q961 555 878.5 632.0Q796 709 651 709ZM449 795Q319 827 246.5 916.0Q174 1005 174 1133Q174 1312 301.5 1416.0Q429 1520 651 1520Q874 1520 1001.0 1416.0Q1128 1312 1128 1133Q1128 1005 1055.5 916.0Q983 827 854 795Q1000 761 1081.5 662.0Q1163 563 1163 420Q1163 203 1030.5 87.0Q898 -29 651 -29Q404 -29 271.5 87.0Q139 203 139 420Q139 563 221.0 662.0Q303 761 449 795ZM375 1114Q375 998 447.5 933.0Q520 868 651 868Q781 868 854.5 933.0Q928 998 928 1114Q928 1230 854.5 1295.0Q781 1360 651 1360Q520 1360 447.5 1295.0Q375 1230 375 1114Z" transform="translate(38.58 203) scale(0.011230 -0.011230)"/><path d="M1124 676V0H940V670Q940 829 878.0 908.0Q816 987 692 987Q543 987 457.0 892.0Q371 797 371 633V0H186V1120H371V946Q437 1047 526.5 1097.0Q616 1147 733 1147Q926 1147 1025.0 1027.5Q1124 908 1124 676Z" transform="translate(53.21 203) scale(0.011230 -0.011230)"/><path d="M219 838H430V584H219Z" transform="translate(75.10 203) scale(0.011230 -0.011230)"/><path d="M700 1294 426 551H975ZM586 1493H815L1384 0H1174L1038 383H365L229 0H16Z" transform="translate(89.72 203) scale(0.011230 -0.011230)"/><path d="M201 1493H403V0H201Z" transform="translate(105.45 203) scale(0.011230 -0.011230)"/><path d="M702 563Q479 563 393.0 512.0Q307 461 307 338Q307 240 371.5 182.5Q436 125 547 125Q700 125 792.5 233.5Q885 342 885 522V563ZM1069 639V0H885V170Q822 68 728.0 19.5Q634 -29 498 -29Q326 -29 224.5 67.5Q123 164 123 326Q123 515 249.5 611.0Q376 707 627 707H885V725Q885 852 801.5 921.5Q718 991 567 991Q471 991 380.0 968.0Q289 945 205 899V1069Q306 1108 401.0 1127.5Q496 1147 586 1147Q829 1147 949.0 1021.0Q1069 895 1069 639Z" transform="translate(119.55 203) scale(0.011230 -0.011230)"/><path d="M930 573Q930 773 847.5 883.0Q765 993 616 993Q468 993 385.5 883.0Q303 773 303 573Q303 374 385.5 264.0Q468 154 616 154Q765 154 847.5 264.0Q930 374 930 573ZM1114 139Q1114 -147 987.0 -286.5Q860 -426 598 -426Q501 -426 415.0 -411.5Q329 -397 248 -367V-188Q329 -232 408.0 -253.0Q487 -274 569 -274Q750 -274 840.0 -179.5Q930 -85 930 106V197Q873 98 784.0 49.0Q695 0 571 0Q365 0 239.0 157.0Q113 314 113 573Q113 833 239.0 990.0Q365 1147 571 1147Q695 1147 784.0 1098.0Q873 1049 930 950V1120H1114Z" transform="translate(133.64 203) scale(0.011230 -0.011230)"/><path d="M1151 606V516H305Q317 326 419.5 226.5Q522 127 705 127Q811 127 910.5 153.0Q1010 179 1108 231V57Q1009 15 905.0 -7.0Q801 -29 694 -29Q426 -29 269.5 127.0Q113 283 113 549Q113 824 261.5 985.5Q410 1147 662 1147Q888 1147 1019.5 1001.5Q1151 856 1151 606ZM967 660Q965 811 882.5 901.0Q800 991 664 991Q510 991 417.5 904.0Q325 817 311 659Z" transform="translate(148.24 203) scale(0.011230 -0.011230)"/><path d="M1124 676V0H940V670Q940 829 878.0 908.0Q816 987 692 987Q543 987 457.0 892.0Q371 797 371 633V0H186V1120H371V946Q437 1047 526.5 1097.0Q616 1147 733 1147Q926 1147 1025.0 1027.5Q1124 908 1124 676Z" transform="translate(162.39 203) scale(0.011230 -0.011230)"/><path d="M375 1438V1120H754V977H375V369Q375 232 412.5 193.0Q450 154 565 154H754V0H565Q352 0 271.0 79.5Q190 159 190 369V977H55V1120H190V1438Z" transform="translate(176.97 203) scale(0.011230 -0.011230)"/><path d="M907 1087V913Q829 953 745.0 973.0Q661 993 571 993Q434 993 365.5 951.0Q297 909 297 825Q297 761 346.0 724.5Q395 688 543 655L606 641Q802 599 884.5 522.5Q967 446 967 309Q967 153 843.5 62.0Q720 -29 504 -29Q414 -29 316.5 -11.5Q219 6 111 41V231Q213 178 312.0 151.5Q411 125 508 125Q638 125 708.0 169.5Q778 214 778 295Q778 370 727.5 410.0Q677 450 506 487L442 502Q271 538 195.0 612.5Q119 687 119 817Q119 975 231.0 1061.0Q343 1147 549 1147Q651 1147 741.0 1132.0Q831 1117 907 1087Z" transform="translate(185.99 203) scale(0.011230 -0.011230)"/><path d="M219 838H430V584H219Z" transform="translate(205.28 203) scale(0.011230 -0.011230)"/><path d="M201 1493H502L883 477L1266 1493H1567V0H1370V1311L985 287H782L397 1311V0H201Z" transform="translate(219.90 203) scale(0.011230 -0.011230)"/><path d="M1319 1378V1165Q1217 1260 1101.5 1307.0Q986 1354 856 1354Q600 1354 464.0 1197.5Q328 1041 328 745Q328 450 464.0 293.5Q600 137 856 137Q986 137 1101.5 184.0Q1217 231 1319 326V115Q1213 43 1094.5 7.0Q976 -29 844 -29Q505 -29 310.0 178.5Q115 386 115 745Q115 1105 310.0 1312.5Q505 1520 844 1520Q978 1520 1096.5 1484.5Q1215 1449 1319 1378Z" transform="translate(239.75 203) scale(0.011230 -0.011230)"/><path d="M403 1327V766H657Q798 766 875.0 839.0Q952 912 952 1047Q952 1181 875.0 1254.0Q798 1327 657 1327ZM201 1493H657Q908 1493 1036.5 1379.5Q1165 1266 1165 1047Q1165 826 1036.5 713.0Q908 600 657 600H403V0H201Z" transform="translate(255.81 203) scale(0.011230 -0.011230)"/></g><path d="M24 231L576 231" fill="none" stroke="#25252c" stroke-width="1" /><g fill="#91d8ec" aria-label="02"><path d="M651 1360Q495 1360 416.5 1206.5Q338 1053 338 745Q338 438 416.5 284.5Q495 131 651 131Q808 131 886.5 284.5Q965 438 965 745Q965 1053 886.5 1206.5Q808 1360 651 1360ZM651 1520Q902 1520 1034.5 1321.5Q1167 1123 1167 745Q1167 368 1034.5 169.5Q902 -29 651 -29Q400 -29 267.5 169.5Q135 368 135 745Q135 1123 267.5 1321.5Q400 1520 651 1520Z" transform="translate(24.00 262) scale(0.008789 -0.008789)"/><path d="M393 170H1098V0H150V170Q265 289 463.5 489.5Q662 690 713 748Q810 857 848.5 932.5Q887 1008 887 1081Q887 1200 803.5 1275.0Q720 1350 586 1350Q491 1350 385.5 1317.0Q280 1284 160 1217V1421Q282 1470 388.0 1495.0Q494 1520 582 1520Q814 1520 952.0 1404.0Q1090 1288 1090 1094Q1090 1002 1055.5 919.5Q1021 837 930 725Q905 696 771.0 557.5Q637 419 393 170Z" transform="translate(35.45 262) scale(0.008789 -0.008789)"/></g><g fill="#91d8ec" stroke="#91d8ec" stroke-width="0.5" aria-label="EXPERIENCE"><path d="M201 1493H1145V1323H403V881H1114V711H403V170H1163V0H201Z" transform="translate(65.00 262) scale(0.009766 -0.009766)"/><path d="M129 1493H346L717 938L1090 1493H1307L827 776L1339 0H1122L702 635L279 0H61L594 797Z" transform="translate(78.64 262) scale(0.009766 -0.009766)"/><path d="M403 1327V766H657Q798 766 875.0 839.0Q952 912 952 1047Q952 1181 875.0 1254.0Q798 1327 657 1327ZM201 1493H657Q908 1493 1036.5 1379.5Q1165 1266 1165 1047Q1165 826 1036.5 713.0Q908 600 657 600H403V0H201Z" transform="translate(93.34 262) scale(0.009766 -0.009766)"/><path d="M201 1493H1145V1323H403V881H1114V711H403V170H1163V0H201Z" transform="translate(106.40 262) scale(0.009766 -0.009766)"/><path d="M909 700Q974 678 1035.5 606.0Q1097 534 1159 408L1364 0H1147L956 383Q882 533 812.5 582.0Q743 631 623 631H403V0H201V1493H657Q913 1493 1039.0 1386.0Q1165 1279 1165 1063Q1165 922 1099.5 829.0Q1034 736 909 700ZM403 1327V797H657Q803 797 877.5 864.5Q952 932 952 1063Q952 1194 877.5 1260.5Q803 1327 657 1327Z" transform="translate(120.04 262) scale(0.009766 -0.009766)"/><path d="M201 1493H403V0H201Z" transform="translate(134.93 262) scale(0.009766 -0.009766)"/><path d="M201 1493H1145V1323H403V881H1114V711H403V170H1163V0H201Z" transform="translate(141.83 262) scale(0.009766 -0.009766)"/><path d="M201 1493H473L1135 244V1493H1331V0H1059L397 1249V0H201Z" transform="translate(155.47 262) scale(0.009766 -0.009766)"/><path d="M1319 1378V1165Q1217 1260 1101.5 1307.0Q986 1354 856 1354Q600 1354 464.0 1197.5Q328 1041 328 745Q328 450 464.0 293.5Q600 137 856 137Q986 137 1101.5 184.0Q1217 231 1319 326V115Q1213 43 1094.5 7.0Q976 -29 844 -29Q505 -29 310.0 178.5Q115 386 115 745Q115 1105 310.0 1312.5Q505 1520 844 1520Q978 1520 1096.5 1484.5Q1215 1449 1319 1378Z" transform="translate(171.43 262) scale(0.009766 -0.009766)"/><path d="M201 1493H1145V1323H403V881H1114V711H403V170H1163V0H201Z" transform="translate(186.39 262) scale(0.009766 -0.009766)"/></g><g fill="#f3f0e8" aria-label="React · Next.js · TypeScript"><path d="M909 700Q974 678 1035.5 606.0Q1097 534 1159 408L1364 0H1147L956 383Q882 533 812.5 582.0Q743 631 623 631H403V0H201V1493H657Q913 1493 1039.0 1386.0Q1165 1279 1165 1063Q1165 922 1099.5 829.0Q1034 736 909 700ZM403 1327V797H657Q803 797 877.5 864.5Q952 932 952 1063Q952 1194 877.5 1260.5Q803 1327 657 1327Z" transform="translate(24.00 303) scale(0.011230 -0.011230)"/><path d="M1151 606V516H305Q317 326 419.5 226.5Q522 127 705 127Q811 127 910.5 153.0Q1010 179 1108 231V57Q1009 15 905.0 -7.0Q801 -29 694 -29Q426 -29 269.5 127.0Q113 283 113 549Q113 824 261.5 985.5Q410 1147 662 1147Q888 1147 1019.5 1001.5Q1151 856 1151 606ZM967 660Q965 811 882.5 901.0Q800 991 664 991Q510 991 417.5 904.0Q325 817 311 659Z" transform="translate(39.98 303) scale(0.011230 -0.011230)"/><path d="M702 563Q479 563 393.0 512.0Q307 461 307 338Q307 240 371.5 182.5Q436 125 547 125Q700 125 792.5 233.5Q885 342 885 522V563ZM1069 639V0H885V170Q822 68 728.0 19.5Q634 -29 498 -29Q326 -29 224.5 67.5Q123 164 123 326Q123 515 249.5 611.0Q376 707 627 707H885V725Q885 852 801.5 921.5Q718 991 567 991Q471 991 380.0 968.0Q289 945 205 899V1069Q306 1108 401.0 1127.5Q496 1147 586 1147Q829 1147 949.0 1021.0Q1069 895 1069 639Z" transform="translate(54.13 303) scale(0.011230 -0.011230)"/><path d="M999 1077V905Q921 948 842.5 969.5Q764 991 684 991Q505 991 406.0 877.5Q307 764 307 559Q307 354 406.0 240.5Q505 127 684 127Q764 127 842.5 148.5Q921 170 999 213V43Q922 7 839.5 -11.0Q757 -29 664 -29Q411 -29 262.0 130.0Q113 289 113 559Q113 833 263.5 990.0Q414 1147 676 1147Q761 1147 842.0 1129.5Q923 1112 999 1077Z" transform="translate(68.23 303) scale(0.011230 -0.011230)"/><path d="M375 1438V1120H754V977H375V369Q375 232 412.5 193.0Q450 154 565 154H754V0H565Q352 0 271.0 79.5Q190 159 190 369V977H55V1120H190V1438Z" transform="translate(80.87 303) scale(0.011230 -0.011230)"/><path d="M219 838H430V584H219Z" transform="translate(97.20 303) scale(0.011230 -0.011230)"/><path d="M201 1493H473L1135 244V1493H1331V0H1059L397 1249V0H201Z" transform="translate(111.82 303) scale(0.011230 -0.011230)"/><path d="M1151 606V516H305Q317 326 419.5 226.5Q522 127 705 127Q811 127 910.5 153.0Q1010 179 1108 231V57Q1009 15 905.0 -7.0Q801 -29 694 -29Q426 -29 269.5 127.0Q113 283 113 549Q113 824 261.5 985.5Q410 1147 662 1147Q888 1147 1019.5 1001.5Q1151 856 1151 606ZM967 660Q965 811 882.5 901.0Q800 991 664 991Q510 991 417.5 904.0Q325 817 311 659Z" transform="translate(129.03 303) scale(0.011230 -0.011230)"/><path d="M1124 1120 719 575 1145 0H928L602 440L276 0H59L494 586L96 1120H313L610 721L907 1120Z" transform="translate(143.18 303) scale(0.011230 -0.011230)"/><path d="M375 1438V1120H754V977H375V369Q375 232 412.5 193.0Q450 154 565 154H754V0H565Q352 0 271.0 79.5Q190 159 190 369V977H55V1120H190V1438Z" transform="translate(156.79 303) scale(0.011230 -0.011230)"/><path d="M219 254H430V0H219Z" transform="translate(165.81 303) scale(0.011230 -0.011230)"/><path d="M193 1120H377V-20Q377 -234 295.5 -330.0Q214 -426 33 -426H-37V-270H12Q117 -270 155.0 -221.5Q193 -173 193 -20ZM193 1556H377V1323H193Z" transform="translate(173.12 303) scale(0.011230 -0.011230)"/><path d="M907 1087V913Q829 953 745.0 973.0Q661 993 571 993Q434 993 365.5 951.0Q297 909 297 825Q297 761 346.0 724.5Q395 688 543 655L606 641Q802 599 884.5 522.5Q967 446 967 309Q967 153 843.5 62.0Q720 -29 504 -29Q414 -29 316.5 -11.5Q219 6 111 41V231Q213 178 312.0 151.5Q411 125 508 125Q638 125 708.0 169.5Q778 214 778 295Q778 370 727.5 410.0Q677 450 506 487L442 502Q271 538 195.0 612.5Q119 687 119 817Q119 975 231.0 1061.0Q343 1147 549 1147Q651 1147 741.0 1132.0Q831 1117 907 1087Z" transform="translate(179.51 303) scale(0.011230 -0.011230)"/><path d="M219 838H430V584H219Z" transform="translate(198.80 303) scale(0.011230 -0.011230)"/><path d="M-6 1493H1257V1323H727V0H524V1323H-6Z" transform="translate(213.42 303) scale(0.011230 -0.011230)"/><path d="M659 -104Q581 -304 507.0 -365.0Q433 -426 309 -426H162V-272H270Q346 -272 388.0 -236.0Q430 -200 481 -66L514 18L61 1120H256L606 244L956 1120H1151Z" transform="translate(227.47 303) scale(0.011230 -0.011230)"/><path d="M371 168V-426H186V1120H371V950Q429 1050 517.5 1098.5Q606 1147 729 1147Q933 1147 1060.5 985.0Q1188 823 1188 559Q1188 295 1060.5 133.0Q933 -29 729 -29Q606 -29 517.5 19.5Q429 68 371 168ZM997 559Q997 762 913.5 877.5Q830 993 684 993Q538 993 454.5 877.5Q371 762 371 559Q371 356 454.5 240.5Q538 125 684 125Q830 125 913.5 240.5Q997 356 997 559Z" transform="translate(241.08 303) scale(0.011230 -0.011230)"/><path d="M1151 606V516H305Q317 326 419.5 226.5Q522 127 705 127Q811 127 910.5 153.0Q1010 179 1108 231V57Q1009 15 905.0 -7.0Q801 -29 694 -29Q426 -29 269.5 127.0Q113 283 113 549Q113 824 261.5 985.5Q410 1147 662 1147Q888 1147 1019.5 1001.5Q1151 856 1151 606ZM967 660Q965 811 882.5 901.0Q800 991 664 991Q510 991 417.5 904.0Q325 817 311 659Z" transform="translate(255.68 303) scale(0.011230 -0.011230)"/><path d="M1096 1444V1247Q981 1302 879.0 1329.0Q777 1356 682 1356Q517 1356 427.5 1292.0Q338 1228 338 1110Q338 1011 397.5 960.5Q457 910 623 879L745 854Q971 811 1078.5 702.5Q1186 594 1186 412Q1186 195 1040.5 83.0Q895 -29 614 -29Q508 -29 388.5 -5.0Q269 19 141 66V274Q264 205 382.0 170.0Q500 135 614 135Q787 135 881.0 203.0Q975 271 975 397Q975 507 907.5 569.0Q840 631 686 662L563 686Q337 731 236.0 827.0Q135 923 135 1094Q135 1292 274.5 1406.0Q414 1520 659 1520Q764 1520 873.0 1501.0Q982 1482 1096 1444Z" transform="translate(269.83 303) scale(0.011230 -0.011230)"/><path d="M999 1077V905Q921 948 842.5 969.5Q764 991 684 991Q505 991 406.0 877.5Q307 764 307 559Q307 354 406.0 240.5Q505 127 684 127Q764 127 842.5 148.5Q921 170 999 213V43Q922 7 839.5 -11.0Q757 -29 664 -29Q411 -29 262.0 130.0Q113 289 113 559Q113 833 263.5 990.0Q414 1147 676 1147Q761 1147 842.0 1129.5Q923 1112 999 1077Z" transform="translate(284.43 303) scale(0.011230 -0.011230)"/><path d="M842 948Q811 966 774.5 974.5Q738 983 694 983Q538 983 454.5 881.5Q371 780 371 590V0H186V1120H371V946Q429 1048 522.0 1097.5Q615 1147 748 1147Q767 1147 790.0 1144.5Q813 1142 841 1137Z" transform="translate(297.08 303) scale(0.011230 -0.011230)"/><path d="M193 1120H377V0H193ZM193 1556H377V1323H193Z" transform="translate(306.54 303) scale(0.011230 -0.011230)"/><path d="M371 168V-426H186V1120H371V950Q429 1050 517.5 1098.5Q606 1147 729 1147Q933 1147 1060.5 985.0Q1188 823 1188 559Q1188 295 1060.5 133.0Q933 -29 729 -29Q606 -29 517.5 19.5Q429 68 371 168ZM997 559Q997 762 913.5 877.5Q830 993 684 993Q538 993 454.5 877.5Q371 762 371 559Q371 356 454.5 240.5Q538 125 684 125Q830 125 913.5 240.5Q997 356 997 559Z" transform="translate(312.93 303) scale(0.011230 -0.011230)"/><path d="M375 1438V1120H754V977H375V369Q375 232 412.5 193.0Q450 154 565 154H754V0H565Q352 0 271.0 79.5Q190 159 190 369V977H55V1120H190V1438Z" transform="translate(327.53 303) scale(0.011230 -0.011230)"/></g><g fill="#f3f0e8" aria-label="Three.js · GLSL · GSAP"><path d="M-6 1493H1257V1323H727V0H524V1323H-6Z" transform="translate(24.00 332) scale(0.011230 -0.011230)"/><path d="M1124 676V0H940V670Q940 829 878.0 908.0Q816 987 692 987Q543 987 457.0 892.0Q371 797 371 633V0H186V1556H371V946Q437 1047 526.5 1097.0Q616 1147 733 1147Q926 1147 1025.0 1027.5Q1124 908 1124 676Z" transform="translate(38.05 332) scale(0.011230 -0.011230)"/><path d="M842 948Q811 966 774.5 974.5Q738 983 694 983Q538 983 454.5 881.5Q371 780 371 590V0H186V1120H371V946Q429 1048 522.0 1097.5Q615 1147 748 1147Q767 1147 790.0 1144.5Q813 1142 841 1137Z" transform="translate(52.63 332) scale(0.011230 -0.011230)"/><path d="M1151 606V516H305Q317 326 419.5 226.5Q522 127 705 127Q811 127 910.5 153.0Q1010 179 1108 231V57Q1009 15 905.0 -7.0Q801 -29 694 -29Q426 -29 269.5 127.0Q113 283 113 549Q113 824 261.5 985.5Q410 1147 662 1147Q888 1147 1019.5 1001.5Q1151 856 1151 606ZM967 660Q965 811 882.5 901.0Q800 991 664 991Q510 991 417.5 904.0Q325 817 311 659Z" transform="translate(62.08 332) scale(0.011230 -0.011230)"/><path d="M1151 606V516H305Q317 326 419.5 226.5Q522 127 705 127Q811 127 910.5 153.0Q1010 179 1108 231V57Q1009 15 905.0 -7.0Q801 -29 694 -29Q426 -29 269.5 127.0Q113 283 113 549Q113 824 261.5 985.5Q410 1147 662 1147Q888 1147 1019.5 1001.5Q1151 856 1151 606ZM967 660Q965 811 882.5 901.0Q800 991 664 991Q510 991 417.5 904.0Q325 817 311 659Z" transform="translate(76.23 332) scale(0.011230 -0.011230)"/><path d="M219 254H430V0H219Z" transform="translate(90.38 332) scale(0.011230 -0.011230)"/><path d="M193 1120H377V-20Q377 -234 295.5 -330.0Q214 -426 33 -426H-37V-270H12Q117 -270 155.0 -221.5Q193 -173 193 -20ZM193 1556H377V1323H193Z" transform="translate(97.69 332) scale(0.011230 -0.011230)"/><path d="M907 1087V913Q829 953 745.0 973.0Q661 993 571 993Q434 993 365.5 951.0Q297 909 297 825Q297 761 346.0 724.5Q395 688 543 655L606 641Q802 599 884.5 522.5Q967 446 967 309Q967 153 843.5 62.0Q720 -29 504 -29Q414 -29 316.5 -11.5Q219 6 111 41V231Q213 178 312.0 151.5Q411 125 508 125Q638 125 708.0 169.5Q778 214 778 295Q778 370 727.5 410.0Q677 450 506 487L442 502Q271 538 195.0 612.5Q119 687 119 817Q119 975 231.0 1061.0Q343 1147 549 1147Q651 1147 741.0 1132.0Q831 1117 907 1087Z" transform="translate(104.08 332) scale(0.011230 -0.011230)"/><path d="M219 838H430V584H219Z" transform="translate(123.38 332) scale(0.011230 -0.011230)"/><path d="M1219 213V614H889V780H1419V139Q1302 56 1161.0 13.5Q1020 -29 860 -29Q510 -29 312.5 175.5Q115 380 115 745Q115 1111 312.5 1315.5Q510 1520 860 1520Q1006 1520 1137.5 1484.0Q1269 1448 1380 1378V1163Q1268 1258 1142.0 1306.0Q1016 1354 877 1354Q603 1354 465.5 1201.0Q328 1048 328 745Q328 443 465.5 290.0Q603 137 877 137Q984 137 1068.0 155.5Q1152 174 1219 213Z" transform="translate(138.00 332) scale(0.011230 -0.011230)"/><path d="M201 1493H403V170H1130V0H201Z" transform="translate(155.82 332) scale(0.011230 -0.011230)"/><path d="M1096 1444V1247Q981 1302 879.0 1329.0Q777 1356 682 1356Q517 1356 427.5 1292.0Q338 1228 338 1110Q338 1011 397.5 960.5Q457 910 623 879L745 854Q971 811 1078.5 702.5Q1186 594 1186 412Q1186 195 1040.5 83.0Q895 -29 614 -29Q508 -29 388.5 -5.0Q269 19 141 66V274Q264 205 382.0 170.0Q500 135 614 135Q787 135 881.0 203.0Q975 271 975 397Q975 507 907.5 569.0Q840 631 686 662L563 686Q337 731 236.0 827.0Q135 923 135 1094Q135 1292 274.5 1406.0Q414 1520 659 1520Q764 1520 873.0 1501.0Q982 1482 1096 1444Z" transform="translate(168.64 332) scale(0.011230 -0.011230)"/><path d="M201 1493H403V170H1130V0H201Z" transform="translate(183.24 332) scale(0.011230 -0.011230)"/><path d="M219 838H430V584H219Z" transform="translate(203.36 332) scale(0.011230 -0.011230)"/><path d="M1219 213V614H889V780H1419V139Q1302 56 1161.0 13.5Q1020 -29 860 -29Q510 -29 312.5 175.5Q115 380 115 745Q115 1111 312.5 1315.5Q510 1520 860 1520Q1006 1520 1137.5 1484.0Q1269 1448 1380 1378V1163Q1268 1258 1142.0 1306.0Q1016 1354 877 1354Q603 1354 465.5 1201.0Q328 1048 328 745Q328 443 465.5 290.0Q603 137 877 137Q984 137 1068.0 155.5Q1152 174 1219 213Z" transform="translate(217.98 332) scale(0.011230 -0.011230)"/><path d="M1096 1444V1247Q981 1302 879.0 1329.0Q777 1356 682 1356Q517 1356 427.5 1292.0Q338 1228 338 1110Q338 1011 397.5 960.5Q457 910 623 879L745 854Q971 811 1078.5 702.5Q1186 594 1186 412Q1186 195 1040.5 83.0Q895 -29 614 -29Q508 -29 388.5 -5.0Q269 19 141 66V274Q264 205 382.0 170.0Q500 135 614 135Q787 135 881.0 203.0Q975 271 975 397Q975 507 907.5 569.0Q840 631 686 662L563 686Q337 731 236.0 827.0Q135 923 135 1094Q135 1292 274.5 1406.0Q414 1520 659 1520Q764 1520 873.0 1501.0Q982 1482 1096 1444Z" transform="translate(235.81 332) scale(0.011230 -0.011230)"/><path d="M700 1294 426 551H975ZM586 1493H815L1384 0H1174L1038 383H365L229 0H16Z" transform="translate(250.41 332) scale(0.011230 -0.011230)"/><path d="M403 1327V766H657Q798 766 875.0 839.0Q952 912 952 1047Q952 1181 875.0 1254.0Q798 1327 657 1327ZM201 1493H657Q908 1493 1036.5 1379.5Q1165 1266 1165 1047Q1165 826 1036.5 713.0Q908 600 657 600H403V0H201Z" transform="translate(266.14 332) scale(0.011230 -0.011230)"/></g><g fill="#f3f0e8" aria-label="Tailwind CSS · Figma"><path d="M-6 1493H1257V1323H727V0H524V1323H-6Z" transform="translate(24.00 361) scale(0.011230 -0.011230)"/><path d="M702 563Q479 563 393.0 512.0Q307 461 307 338Q307 240 371.5 182.5Q436 125 547 125Q700 125 792.5 233.5Q885 342 885 522V563ZM1069 639V0H885V170Q822 68 728.0 19.5Q634 -29 498 -29Q326 -29 224.5 67.5Q123 164 123 326Q123 515 249.5 611.0Q376 707 627 707H885V725Q885 852 801.5 921.5Q718 991 567 991Q471 991 380.0 968.0Q289 945 205 899V1069Q306 1108 401.0 1127.5Q496 1147 586 1147Q829 1147 949.0 1021.0Q1069 895 1069 639Z" transform="translate(38.05 361) scale(0.011230 -0.011230)"/><path d="M193 1120H377V0H193ZM193 1556H377V1323H193Z" transform="translate(52.14 361) scale(0.011230 -0.011230)"/><path d="M193 1556H377V0H193Z" transform="translate(58.53 361) scale(0.011230 -0.011230)"/><path d="M86 1120H270L500 246L729 1120H946L1176 246L1405 1120H1589L1296 0H1079L838 918L596 0H379Z" transform="translate(64.92 361) scale(0.011230 -0.011230)"/><path d="M193 1120H377V0H193ZM193 1556H377V1323H193Z" transform="translate(83.73 361) scale(0.011230 -0.011230)"/><path d="M1124 676V0H940V670Q940 829 878.0 908.0Q816 987 692 987Q543 987 457.0 892.0Q371 797 371 633V0H186V1120H371V946Q437 1047 526.5 1097.0Q616 1147 733 1147Q926 1147 1025.0 1027.5Q1124 908 1124 676Z" transform="translate(90.12 361) scale(0.011230 -0.011230)"/><path d="M930 950V1556H1114V0H930V168Q872 68 783.5 19.5Q695 -29 571 -29Q368 -29 240.5 133.0Q113 295 113 559Q113 823 240.5 985.0Q368 1147 571 1147Q695 1147 783.5 1098.5Q872 1050 930 950ZM303 559Q303 356 386.5 240.5Q470 125 616 125Q762 125 846.0 240.5Q930 356 930 559Q930 762 846.0 877.5Q762 993 616 993Q470 993 386.5 877.5Q303 762 303 559Z" transform="translate(104.70 361) scale(0.011230 -0.011230)"/><path d="M1319 1378V1165Q1217 1260 1101.5 1307.0Q986 1354 856 1354Q600 1354 464.0 1197.5Q328 1041 328 745Q328 450 464.0 293.5Q600 137 856 137Q986 137 1101.5 184.0Q1217 231 1319 326V115Q1213 43 1094.5 7.0Q976 -29 844 -29Q505 -29 310.0 178.5Q115 386 115 745Q115 1105 310.0 1312.5Q505 1520 844 1520Q978 1520 1096.5 1484.5Q1215 1449 1319 1378Z" transform="translate(126.61 361) scale(0.011230 -0.011230)"/><path d="M1096 1444V1247Q981 1302 879.0 1329.0Q777 1356 682 1356Q517 1356 427.5 1292.0Q338 1228 338 1110Q338 1011 397.5 960.5Q457 910 623 879L745 854Q971 811 1078.5 702.5Q1186 594 1186 412Q1186 195 1040.5 83.0Q895 -29 614 -29Q508 -29 388.5 -5.0Q269 19 141 66V274Q264 205 382.0 170.0Q500 135 614 135Q787 135 881.0 203.0Q975 271 975 397Q975 507 907.5 569.0Q840 631 686 662L563 686Q337 731 236.0 827.0Q135 923 135 1094Q135 1292 274.5 1406.0Q414 1520 659 1520Q764 1520 873.0 1501.0Q982 1482 1096 1444Z" transform="translate(142.67 361) scale(0.011230 -0.011230)"/><path d="M1096 1444V1247Q981 1302 879.0 1329.0Q777 1356 682 1356Q517 1356 427.5 1292.0Q338 1228 338 1110Q338 1011 397.5 960.5Q457 910 623 879L745 854Q971 811 1078.5 702.5Q1186 594 1186 412Q1186 195 1040.5 83.0Q895 -29 614 -29Q508 -29 388.5 -5.0Q269 19 141 66V274Q264 205 382.0 170.0Q500 135 614 135Q787 135 881.0 203.0Q975 271 975 397Q975 507 907.5 569.0Q840 631 686 662L563 686Q337 731 236.0 827.0Q135 923 135 1094Q135 1292 274.5 1406.0Q414 1520 659 1520Q764 1520 873.0 1501.0Q982 1482 1096 1444Z" transform="translate(157.27 361) scale(0.011230 -0.011230)"/><path d="M219 838H430V584H219Z" transform="translate(179.18 361) scale(0.011230 -0.011230)"/><path d="M201 1493H1059V1323H403V883H995V713H403V0H201Z" transform="translate(193.80 361) scale(0.011230 -0.011230)"/><path d="M193 1120H377V0H193ZM193 1556H377V1323H193Z" transform="translate(207.03 361) scale(0.011230 -0.011230)"/><path d="M930 573Q930 773 847.5 883.0Q765 993 616 993Q468 993 385.5 883.0Q303 773 303 573Q303 374 385.5 264.0Q468 154 616 154Q765 154 847.5 264.0Q930 374 930 573ZM1114 139Q1114 -147 987.0 -286.5Q860 -426 598 -426Q501 -426 415.0 -411.5Q329 -397 248 -367V-188Q329 -232 408.0 -253.0Q487 -274 569 -274Q750 -274 840.0 -179.5Q930 -85 930 106V197Q873 98 784.0 49.0Q695 0 571 0Q365 0 239.0 157.0Q113 314 113 573Q113 833 239.0 990.0Q365 1147 571 1147Q695 1147 784.0 1098.0Q873 1049 930 950V1120H1114Z" transform="translate(213.42 361) scale(0.011230 -0.011230)"/><path d="M1065 905Q1134 1029 1230.0 1088.0Q1326 1147 1456 1147Q1631 1147 1726.0 1024.5Q1821 902 1821 676V0H1636V670Q1636 831 1579.0 909.0Q1522 987 1405 987Q1262 987 1179.0 892.0Q1096 797 1096 633V0H911V670Q911 832 854.0 909.5Q797 987 678 987Q537 987 454.0 891.5Q371 796 371 633V0H186V1120H371V946Q434 1049 522.0 1098.0Q610 1147 731 1147Q853 1147 938.5 1085.0Q1024 1023 1065 905Z" transform="translate(228.02 361) scale(0.011230 -0.011230)"/><path d="M702 563Q479 563 393.0 512.0Q307 461 307 338Q307 240 371.5 182.5Q436 125 547 125Q700 125 792.5 233.5Q885 342 885 522V563ZM1069 639V0H885V170Q822 68 728.0 19.5Q634 -29 498 -29Q326 -29 224.5 67.5Q123 164 123 326Q123 515 249.5 611.0Q376 707 627 707H885V725Q885 852 801.5 921.5Q718 991 567 991Q471 991 380.0 968.0Q289 945 205 899V1069Q306 1108 401.0 1127.5Q496 1147 586 1147Q829 1147 949.0 1021.0Q1069 895 1069 639Z" transform="translate(250.43 361) scale(0.011230 -0.011230)"/></g><path d="M24 389L576 389" fill="none" stroke="#25252c" stroke-width="1" /><g fill="#efc286" aria-label="03"><path d="M651 1360Q495 1360 416.5 1206.5Q338 1053 338 745Q338 438 416.5 284.5Q495 131 651 131Q808 131 886.5 284.5Q965 438 965 745Q965 1053 886.5 1206.5Q808 1360 651 1360ZM651 1520Q902 1520 1034.5 1321.5Q1167 1123 1167 745Q1167 368 1034.5 169.5Q902 -29 651 -29Q400 -29 267.5 169.5Q135 368 135 745Q135 1123 267.5 1321.5Q400 1520 651 1520Z" transform="translate(24.00 420) scale(0.008789 -0.008789)"/><path d="M831 805Q976 774 1057.5 676.0Q1139 578 1139 434Q1139 213 987.0 92.0Q835 -29 555 -29Q461 -29 361.5 -10.5Q262 8 156 45V240Q240 191 340.0 166.0Q440 141 549 141Q739 141 838.5 216.0Q938 291 938 434Q938 566 845.5 640.5Q753 715 588 715H414V881H596Q745 881 824.0 940.5Q903 1000 903 1112Q903 1227 821.5 1288.5Q740 1350 588 1350Q505 1350 410.0 1332.0Q315 1314 201 1276V1456Q316 1488 416.5 1504.0Q517 1520 606 1520Q836 1520 970.0 1415.5Q1104 1311 1104 1133Q1104 1009 1033.0 923.5Q962 838 831 805Z" transform="translate(35.45 420) scale(0.008789 -0.008789)"/></g><g fill="#efc286" stroke="#efc286" stroke-width="0.5" aria-label="DELIVERY"><path d="M403 1327V166H647Q956 166 1099.5 306.0Q1243 446 1243 748Q1243 1048 1099.5 1187.5Q956 1327 647 1327ZM201 1493H616Q1050 1493 1253.0 1312.5Q1456 1132 1456 748Q1456 362 1252.0 181.0Q1048 0 616 0H201Z" transform="translate(65.00 420) scale(0.009766 -0.009766)"/><path d="M201 1493H1145V1323H403V881H1114V711H403V170H1163V0H201Z" transform="translate(81.40 420) scale(0.009766 -0.009766)"/><path d="M201 1493H403V170H1130V0H201Z" transform="translate(95.04 420) scale(0.009766 -0.009766)"/><path d="M201 1493H403V0H201Z" transform="translate(107.18 420) scale(0.009766 -0.009766)"/><path d="M586 0 16 1493H227L700 236L1174 1493H1384L815 0Z" transform="translate(114.08 420) scale(0.009766 -0.009766)"/><path d="M201 1493H1145V1323H403V881H1114V711H403V170H1163V0H201Z" transform="translate(128.76 420) scale(0.009766 -0.009766)"/><path d="M909 700Q974 678 1035.5 606.0Q1097 534 1159 408L1364 0H1147L956 383Q882 533 812.5 582.0Q743 631 623 631H403V0H201V1493H657Q913 1493 1039.0 1386.0Q1165 1279 1165 1063Q1165 922 1099.5 829.0Q1034 736 909 700ZM403 1327V797H657Q803 797 877.5 864.5Q952 932 952 1063Q952 1194 877.5 1260.5Q803 1327 657 1327Z" transform="translate(142.40 420) scale(0.009766 -0.009766)"/><path d="M-4 1493H213L627 879L1038 1493H1255L727 711V0H524V711Z" transform="translate(157.29 420) scale(0.009766 -0.009766)"/></g><g fill="#f3f0e8" aria-label="FastAPI · Docker"><path d="M201 1493H1059V1323H403V883H995V713H403V0H201Z" transform="translate(24.00 461) scale(0.011230 -0.011230)"/><path d="M702 563Q479 563 393.0 512.0Q307 461 307 338Q307 240 371.5 182.5Q436 125 547 125Q700 125 792.5 233.5Q885 342 885 522V563ZM1069 639V0H885V170Q822 68 728.0 19.5Q634 -29 498 -29Q326 -29 224.5 67.5Q123 164 123 326Q123 515 249.5 611.0Q376 707 627 707H885V725Q885 852 801.5 921.5Q718 991 567 991Q471 991 380.0 968.0Q289 945 205 899V1069Q306 1108 401.0 1127.5Q496 1147 586 1147Q829 1147 949.0 1021.0Q1069 895 1069 639Z" transform="translate(37.23 461) scale(0.011230 -0.011230)"/><path d="M907 1087V913Q829 953 745.0 973.0Q661 993 571 993Q434 993 365.5 951.0Q297 909 297 825Q297 761 346.0 724.5Q395 688 543 655L606 641Q802 599 884.5 522.5Q967 446 967 309Q967 153 843.5 62.0Q720 -29 504 -29Q414 -29 316.5 -11.5Q219 6 111 41V231Q213 178 312.0 151.5Q411 125 508 125Q638 125 708.0 169.5Q778 214 778 295Q778 370 727.5 410.0Q677 450 506 487L442 502Q271 538 195.0 612.5Q119 687 119 817Q119 975 231.0 1061.0Q343 1147 549 1147Q651 1147 741.0 1132.0Q831 1117 907 1087Z" transform="translate(51.32 461) scale(0.011230 -0.011230)"/><path d="M375 1438V1120H754V977H375V369Q375 232 412.5 193.0Q450 154 565 154H754V0H565Q352 0 271.0 79.5Q190 159 190 369V977H55V1120H190V1438Z" transform="translate(63.31 461) scale(0.011230 -0.011230)"/><path d="M700 1294 426 551H975ZM586 1493H815L1384 0H1174L1038 383H365L229 0H16Z" transform="translate(72.32 461) scale(0.011230 -0.011230)"/><path d="M403 1327V766H657Q798 766 875.0 839.0Q952 912 952 1047Q952 1181 875.0 1254.0Q798 1327 657 1327ZM201 1493H657Q908 1493 1036.5 1379.5Q1165 1266 1165 1047Q1165 826 1036.5 713.0Q908 600 657 600H403V0H201Z" transform="translate(88.06 461) scale(0.011230 -0.011230)"/><path d="M201 1493H403V0H201Z" transform="translate(101.93 461) scale(0.011230 -0.011230)"/><path d="M219 838H430V584H219Z" transform="translate(116.02 461) scale(0.011230 -0.011230)"/><path d="M403 1327V166H647Q956 166 1099.5 306.0Q1243 446 1243 748Q1243 1048 1099.5 1187.5Q956 1327 647 1327ZM201 1493H616Q1050 1493 1253.0 1312.5Q1456 1132 1456 748Q1456 362 1252.0 181.0Q1048 0 616 0H201Z" transform="translate(130.64 461) scale(0.011230 -0.011230)"/><path d="M627 991Q479 991 393.0 875.5Q307 760 307 559Q307 358 392.5 242.5Q478 127 627 127Q774 127 860.0 243.0Q946 359 946 559Q946 758 860.0 874.5Q774 991 627 991ZM627 1147Q867 1147 1004.0 991.0Q1141 835 1141 559Q1141 284 1004.0 127.5Q867 -29 627 -29Q386 -29 249.5 127.5Q113 284 113 559Q113 835 249.5 991.0Q386 1147 627 1147Z" transform="translate(148.35 461) scale(0.011230 -0.011230)"/><path d="M999 1077V905Q921 948 842.5 969.5Q764 991 684 991Q505 991 406.0 877.5Q307 764 307 559Q307 354 406.0 240.5Q505 127 684 127Q764 127 842.5 148.5Q921 170 999 213V43Q922 7 839.5 -11.0Q757 -29 664 -29Q411 -29 262.0 130.0Q113 289 113 559Q113 833 263.5 990.0Q414 1147 676 1147Q761 1147 842.0 1129.5Q923 1112 999 1077Z" transform="translate(162.43 461) scale(0.011230 -0.011230)"/><path d="M186 1556H371V637L920 1120H1155L561 596L1180 0H940L371 547V0H186Z" transform="translate(175.07 461) scale(0.011230 -0.011230)"/><path d="M1151 606V516H305Q317 326 419.5 226.5Q522 127 705 127Q811 127 910.5 153.0Q1010 179 1108 231V57Q1009 15 905.0 -7.0Q801 -29 694 -29Q426 -29 269.5 127.0Q113 283 113 549Q113 824 261.5 985.5Q410 1147 662 1147Q888 1147 1019.5 1001.5Q1151 856 1151 606ZM967 660Q965 811 882.5 901.0Q800 991 664 991Q510 991 417.5 904.0Q325 817 311 659Z" transform="translate(188.39 461) scale(0.011230 -0.011230)"/><path d="M842 948Q811 966 774.5 974.5Q738 983 694 983Q538 983 454.5 881.5Q371 780 371 590V0H186V1120H371V946Q429 1048 522.0 1097.5Q615 1147 748 1147Q767 1147 790.0 1144.5Q813 1142 841 1137Z" transform="translate(202.54 461) scale(0.011230 -0.011230)"/></g><g fill="#f3f0e8" aria-label="PostgreSQL · REST APIs"><path d="M403 1327V766H657Q798 766 875.0 839.0Q952 912 952 1047Q952 1181 875.0 1254.0Q798 1327 657 1327ZM201 1493H657Q908 1493 1036.5 1379.5Q1165 1266 1165 1047Q1165 826 1036.5 713.0Q908 600 657 600H403V0H201Z" transform="translate(24.00 490) scale(0.011230 -0.011230)"/><path d="M627 991Q479 991 393.0 875.5Q307 760 307 559Q307 358 392.5 242.5Q478 127 627 127Q774 127 860.0 243.0Q946 359 946 559Q946 758 860.0 874.5Q774 991 627 991ZM627 1147Q867 1147 1004.0 991.0Q1141 835 1141 559Q1141 284 1004.0 127.5Q867 -29 627 -29Q386 -29 249.5 127.5Q113 284 113 559Q113 835 249.5 991.0Q386 1147 627 1147Z" transform="translate(37.87 490) scale(0.011230 -0.011230)"/><path d="M907 1087V913Q829 953 745.0 973.0Q661 993 571 993Q434 993 365.5 951.0Q297 909 297 825Q297 761 346.0 724.5Q395 688 543 655L606 641Q802 599 884.5 522.5Q967 446 967 309Q967 153 843.5 62.0Q720 -29 504 -29Q414 -29 316.5 -11.5Q219 6 111 41V231Q213 178 312.0 151.5Q411 125 508 125Q638 125 708.0 169.5Q778 214 778 295Q778 370 727.5 410.0Q677 450 506 487L442 502Q271 538 195.0 612.5Q119 687 119 817Q119 975 231.0 1061.0Q343 1147 549 1147Q651 1147 741.0 1132.0Q831 1117 907 1087Z" transform="translate(51.94 490) scale(0.011230 -0.011230)"/><path d="M375 1438V1120H754V977H375V369Q375 232 412.5 193.0Q450 154 565 154H754V0H565Q352 0 271.0 79.5Q190 159 190 369V977H55V1120H190V1438Z" transform="translate(63.92 490) scale(0.011230 -0.011230)"/><path d="M930 573Q930 773 847.5 883.0Q765 993 616 993Q468 993 385.5 883.0Q303 773 303 573Q303 374 385.5 264.0Q468 154 616 154Q765 154 847.5 264.0Q930 374 930 573ZM1114 139Q1114 -147 987.0 -286.5Q860 -426 598 -426Q501 -426 415.0 -411.5Q329 -397 248 -367V-188Q329 -232 408.0 -253.0Q487 -274 569 -274Q750 -274 840.0 -179.5Q930 -85 930 106V197Q873 98 784.0 49.0Q695 0 571 0Q365 0 239.0 157.0Q113 314 113 573Q113 833 239.0 990.0Q365 1147 571 1147Q695 1147 784.0 1098.0Q873 1049 930 950V1120H1114Z" transform="translate(72.94 490) scale(0.011230 -0.011230)"/><path d="M842 948Q811 966 774.5 974.5Q738 983 694 983Q538 983 454.5 881.5Q371 780 371 590V0H186V1120H371V946Q429 1048 522.0 1097.5Q615 1147 748 1147Q767 1147 790.0 1144.5Q813 1142 841 1137Z" transform="translate(87.54 490) scale(0.011230 -0.011230)"/><path d="M1151 606V516H305Q317 326 419.5 226.5Q522 127 705 127Q811 127 910.5 153.0Q1010 179 1108 231V57Q1009 15 905.0 -7.0Q801 -29 694 -29Q426 -29 269.5 127.0Q113 283 113 549Q113 824 261.5 985.5Q410 1147 662 1147Q888 1147 1019.5 1001.5Q1151 856 1151 606ZM967 660Q965 811 882.5 901.0Q800 991 664 991Q510 991 417.5 904.0Q325 817 311 659Z" transform="translate(97.00 490) scale(0.011230 -0.011230)"/><path d="M1096 1444V1247Q981 1302 879.0 1329.0Q777 1356 682 1356Q517 1356 427.5 1292.0Q338 1228 338 1110Q338 1011 397.5 960.5Q457 910 623 879L745 854Q971 811 1078.5 702.5Q1186 594 1186 412Q1186 195 1040.5 83.0Q895 -29 614 -29Q508 -29 388.5 -5.0Q269 19 141 66V274Q264 205 382.0 170.0Q500 135 614 135Q787 135 881.0 203.0Q975 271 975 397Q975 507 907.5 569.0Q840 631 686 662L563 686Q337 731 236.0 827.0Q135 923 135 1094Q135 1292 274.5 1406.0Q414 1520 659 1520Q764 1520 873.0 1501.0Q982 1482 1096 1444Z" transform="translate(111.15 490) scale(0.011230 -0.011230)"/><path d="M807 1356Q587 1356 457.5 1192.0Q328 1028 328 745Q328 463 457.5 299.0Q587 135 807 135Q1027 135 1155.5 299.0Q1284 463 1284 745Q1284 1028 1155.5 1192.0Q1027 1356 807 1356ZM1090 27 1356 -264H1112L891 -25Q858 -27 840.5 -28.0Q823 -29 807 -29Q492 -29 303.5 181.5Q115 392 115 745Q115 1099 303.5 1309.5Q492 1520 807 1520Q1121 1520 1309.0 1309.5Q1497 1099 1497 745Q1497 485 1392.5 300.0Q1288 115 1090 27Z" transform="translate(125.75 490) scale(0.011230 -0.011230)"/><path d="M201 1493H403V170H1130V0H201Z" transform="translate(143.85 490) scale(0.011230 -0.011230)"/><path d="M219 838H430V584H219Z" transform="translate(163.98 490) scale(0.011230 -0.011230)"/><path d="M909 700Q974 678 1035.5 606.0Q1097 534 1159 408L1364 0H1147L956 383Q882 533 812.5 582.0Q743 631 623 631H403V0H201V1493H657Q913 1493 1039.0 1386.0Q1165 1279 1165 1063Q1165 922 1099.5 829.0Q1034 736 909 700ZM403 1327V797H657Q803 797 877.5 864.5Q952 932 952 1063Q952 1194 877.5 1260.5Q803 1327 657 1327Z" transform="translate(178.60 490) scale(0.011230 -0.011230)"/><path d="M201 1493H1145V1323H403V881H1114V711H403V170H1163V0H201Z" transform="translate(194.58 490) scale(0.011230 -0.011230)"/><path d="M1096 1444V1247Q981 1302 879.0 1329.0Q777 1356 682 1356Q517 1356 427.5 1292.0Q338 1228 338 1110Q338 1011 397.5 960.5Q457 910 623 879L745 854Q971 811 1078.5 702.5Q1186 594 1186 412Q1186 195 1040.5 83.0Q895 -29 614 -29Q508 -29 388.5 -5.0Q269 19 141 66V274Q264 205 382.0 170.0Q500 135 614 135Q787 135 881.0 203.0Q975 271 975 397Q975 507 907.5 569.0Q840 631 686 662L563 686Q337 731 236.0 827.0Q135 923 135 1094Q135 1292 274.5 1406.0Q414 1520 659 1520Q764 1520 873.0 1501.0Q982 1482 1096 1444Z" transform="translate(209.11 490) scale(0.011230 -0.011230)"/><path d="M-6 1493H1257V1323H727V0H524V1323H-6Z" transform="translate(223.71 490) scale(0.011230 -0.011230)"/><path d="M700 1294 426 551H975ZM586 1493H815L1384 0H1174L1038 383H365L229 0H16Z" transform="translate(245.07 490) scale(0.011230 -0.011230)"/><path d="M403 1327V766H657Q798 766 875.0 839.0Q952 912 952 1047Q952 1181 875.0 1254.0Q798 1327 657 1327ZM201 1493H657Q908 1493 1036.5 1379.5Q1165 1266 1165 1047Q1165 826 1036.5 713.0Q908 600 657 600H403V0H201Z" transform="translate(260.81 490) scale(0.011230 -0.011230)"/><path d="M201 1493H403V0H201Z" transform="translate(274.68 490) scale(0.011230 -0.011230)"/><path d="M907 1087V913Q829 953 745.0 973.0Q661 993 571 993Q434 993 365.5 951.0Q297 909 297 825Q297 761 346.0 724.5Q395 688 543 655L606 641Q802 599 884.5 522.5Q967 446 967 309Q967 153 843.5 62.0Q720 -29 504 -29Q414 -29 316.5 -11.5Q219 6 111 41V231Q213 178 312.0 151.5Q411 125 508 125Q638 125 708.0 169.5Q778 214 778 295Q778 370 727.5 410.0Q677 450 506 487L442 502Q271 538 195.0 612.5Q119 687 119 817Q119 975 231.0 1061.0Q343 1147 549 1147Q651 1147 741.0 1132.0Q831 1117 907 1087Z" transform="translate(281.46 490) scale(0.011230 -0.011230)"/></g><g fill="#f3f0e8" aria-label="Git · Power BI"><path d="M1219 213V614H889V780H1419V139Q1302 56 1161.0 13.5Q1020 -29 860 -29Q510 -29 312.5 175.5Q115 380 115 745Q115 1111 312.5 1315.5Q510 1520 860 1520Q1006 1520 1137.5 1484.0Q1269 1448 1380 1378V1163Q1268 1258 1142.0 1306.0Q1016 1354 877 1354Q603 1354 465.5 1201.0Q328 1048 328 745Q328 443 465.5 290.0Q603 137 877 137Q984 137 1068.0 155.5Q1152 174 1219 213Z" transform="translate(24.00 519) scale(0.011230 -0.011230)"/><path d="M193 1120H377V0H193ZM193 1556H377V1323H193Z" transform="translate(41.82 519) scale(0.011230 -0.011230)"/><path d="M375 1438V1120H754V977H375V369Q375 232 412.5 193.0Q450 154 565 154H754V0H565Q352 0 271.0 79.5Q190 159 190 369V977H55V1120H190V1438Z" transform="translate(48.21 519) scale(0.011230 -0.011230)"/><path d="M219 838H430V584H219Z" transform="translate(64.54 519) scale(0.011230 -0.011230)"/><path d="M403 1327V766H657Q798 766 875.0 839.0Q952 912 952 1047Q952 1181 875.0 1254.0Q798 1327 657 1327ZM201 1493H657Q908 1493 1036.5 1379.5Q1165 1266 1165 1047Q1165 826 1036.5 713.0Q908 600 657 600H403V0H201Z" transform="translate(79.16 519) scale(0.011230 -0.011230)"/><path d="M627 991Q479 991 393.0 875.5Q307 760 307 559Q307 358 392.5 242.5Q478 127 627 127Q774 127 860.0 243.0Q946 359 946 559Q946 758 860.0 874.5Q774 991 627 991ZM627 1147Q867 1147 1004.0 991.0Q1141 835 1141 559Q1141 284 1004.0 127.5Q867 -29 627 -29Q386 -29 249.5 127.5Q113 284 113 559Q113 835 249.5 991.0Q386 1147 627 1147Z" transform="translate(93.03 519) scale(0.011230 -0.011230)"/><path d="M86 1120H270L500 246L729 1120H946L1176 246L1405 1120H1589L1296 0H1079L838 918L596 0H379Z" transform="translate(107.11 519) scale(0.011230 -0.011230)"/><path d="M1151 606V516H305Q317 326 419.5 226.5Q522 127 705 127Q811 127 910.5 153.0Q1010 179 1108 231V57Q1009 15 905.0 -7.0Q801 -29 694 -29Q426 -29 269.5 127.0Q113 283 113 549Q113 824 261.5 985.5Q410 1147 662 1147Q888 1147 1019.5 1001.5Q1151 856 1151 606ZM967 660Q965 811 882.5 901.0Q800 991 664 991Q510 991 417.5 904.0Q325 817 311 659Z" transform="translate(125.92 519) scale(0.011230 -0.011230)"/><path d="M842 948Q811 966 774.5 974.5Q738 983 694 983Q538 983 454.5 881.5Q371 780 371 590V0H186V1120H371V946Q429 1048 522.0 1097.5Q615 1147 748 1147Q767 1147 790.0 1144.5Q813 1142 841 1137Z" transform="translate(140.07 519) scale(0.011230 -0.011230)"/><path d="M403 713V166H727Q890 166 968.5 233.5Q1047 301 1047 440Q1047 580 968.5 646.5Q890 713 727 713ZM403 1327V877H702Q850 877 922.5 932.5Q995 988 995 1102Q995 1215 922.5 1271.0Q850 1327 702 1327ZM201 1493H717Q948 1493 1073.0 1397.0Q1198 1301 1198 1124Q1198 987 1134.0 906.0Q1070 825 946 805Q1095 773 1177.5 671.5Q1260 570 1260 418Q1260 218 1124.0 109.0Q988 0 737 0H201Z" transform="translate(156.83 519) scale(0.011230 -0.011230)"/><path d="M201 1493H403V0H201Z" transform="translate(172.61 519) scale(0.011230 -0.011230)"/></g><path d="M24 555L576 555" fill="none" stroke="#e50914" stroke-width="1" /><g fill="#aaa8ad" aria-label="FRAME. BUILD. MAKE IT USABLE."><path d="M201 1493H1059V1323H403V883H995V713H403V0H201Z" transform="translate(24.00 591) scale(0.008301 -0.008301)"/><path d="M909 700Q974 678 1035.5 606.0Q1097 534 1159 408L1364 0H1147L956 383Q882 533 812.5 582.0Q743 631 623 631H403V0H201V1493H657Q913 1493 1039.0 1386.0Q1165 1279 1165 1063Q1165 922 1099.5 829.0Q1034 736 909 700ZM403 1327V797H657Q803 797 877.5 864.5Q952 932 952 1063Q952 1194 877.5 1260.5Q803 1327 657 1327Z" transform="translate(34.78 591) scale(0.008301 -0.008301)"/><path d="M700 1294 426 551H975ZM586 1493H815L1384 0H1174L1038 383H365L229 0H16Z" transform="translate(47.59 591) scale(0.008301 -0.008301)"/><path d="M201 1493H502L883 477L1266 1493H1567V0H1370V1311L985 287H782L397 1311V0H201Z" transform="translate(60.22 591) scale(0.008301 -0.008301)"/><path d="M201 1493H1145V1323H403V881H1114V711H403V170H1163V0H201Z" transform="translate(75.89 591) scale(0.008301 -0.008301)"/><path d="M219 254H430V0H219Z" transform="translate(87.63 591) scale(0.008301 -0.008301)"/><path d="M403 713V166H727Q890 166 968.5 233.5Q1047 301 1047 440Q1047 580 968.5 646.5Q890 713 727 713ZM403 1327V877H702Q850 877 922.5 932.5Q995 988 995 1102Q995 1215 922.5 1271.0Q850 1327 702 1327ZM201 1493H717Q948 1493 1073.0 1397.0Q1198 1301 1198 1124Q1198 987 1134.0 906.0Q1070 825 946 805Q1095 773 1177.5 671.5Q1260 570 1260 418Q1260 218 1124.0 109.0Q988 0 737 0H201Z" transform="translate(100.44 591) scale(0.008301 -0.008301)"/><path d="M178 1493H381V586Q381 346 468.0 240.5Q555 135 750 135Q944 135 1031.0 240.5Q1118 346 1118 586V1493H1321V561Q1321 269 1176.5 120.0Q1032 -29 750 -29Q467 -29 322.5 120.0Q178 269 178 561Z" transform="translate(113.10 591) scale(0.008301 -0.008301)"/><path d="M201 1493H403V0H201Z" transform="translate(126.54 591) scale(0.008301 -0.008301)"/><path d="M201 1493H403V170H1130V0H201Z" transform="translate(132.56 591) scale(0.008301 -0.008301)"/><path d="M403 1327V166H647Q956 166 1099.5 306.0Q1243 446 1243 748Q1243 1048 1099.5 1187.5Q956 1327 647 1327ZM201 1493H616Q1050 1493 1253.0 1312.5Q1456 1132 1456 748Q1456 362 1252.0 181.0Q1048 0 616 0H201Z" transform="translate(143.03 591) scale(0.008301 -0.008301)"/><path d="M219 254H430V0H219Z" transform="translate(157.12 591) scale(0.008301 -0.008301)"/><path d="M201 1493H502L883 477L1266 1493H1567V0H1370V1311L985 287H782L397 1311V0H201Z" transform="translate(169.92 591) scale(0.008301 -0.008301)"/><path d="M700 1294 426 551H975ZM586 1493H815L1384 0H1174L1038 383H365L229 0H16Z" transform="translate(185.59 591) scale(0.008301 -0.008301)"/><path d="M201 1493H403V862L1073 1493H1333L592 797L1386 0H1120L403 719V0H201Z" transform="translate(198.22 591) scale(0.008301 -0.008301)"/><path d="M201 1493H1145V1323H403V881H1114V711H403V170H1163V0H201Z" transform="translate(210.37 591) scale(0.008301 -0.008301)"/><path d="M201 1493H403V0H201Z" transform="translate(228.51 591) scale(0.008301 -0.008301)"/><path d="M-6 1493H1257V1323H727V0H524V1323H-6Z" transform="translate(234.53 591) scale(0.008301 -0.008301)"/><path d="M178 1493H381V586Q381 346 468.0 240.5Q555 135 750 135Q944 135 1031.0 240.5Q1118 346 1118 586V1493H1321V561Q1321 269 1176.5 120.0Q1032 -29 750 -29Q467 -29 322.5 120.0Q178 269 178 561Z" transform="translate(252.32 591) scale(0.008301 -0.008301)"/><path d="M1096 1444V1247Q981 1302 879.0 1329.0Q777 1356 682 1356Q517 1356 427.5 1292.0Q338 1228 338 1110Q338 1011 397.5 960.5Q457 910 623 879L745 854Q971 811 1078.5 702.5Q1186 594 1186 412Q1186 195 1040.5 83.0Q895 -29 614 -29Q508 -29 388.5 -5.0Q269 19 141 66V274Q264 205 382.0 170.0Q500 135 614 135Q787 135 881.0 203.0Q975 271 975 397Q975 507 907.5 569.0Q840 631 686 662L563 686Q337 731 236.0 827.0Q135 923 135 1094Q135 1292 274.5 1406.0Q414 1520 659 1520Q764 1520 873.0 1501.0Q982 1482 1096 1444Z" transform="translate(265.76 591) scale(0.008301 -0.008301)"/><path d="M700 1294 426 551H975ZM586 1493H815L1384 0H1174L1038 383H365L229 0H16Z" transform="translate(277.55 591) scale(0.008301 -0.008301)"/><path d="M403 713V166H727Q890 166 968.5 233.5Q1047 301 1047 440Q1047 580 968.5 646.5Q890 713 727 713ZM403 1327V877H702Q850 877 922.5 932.5Q995 988 995 1102Q995 1215 922.5 1271.0Q850 1327 702 1327ZM201 1493H717Q948 1493 1073.0 1397.0Q1198 1301 1198 1124Q1198 987 1134.0 906.0Q1070 825 946 805Q1095 773 1177.5 671.5Q1260 570 1260 418Q1260 218 1124.0 109.0Q988 0 737 0H201Z" transform="translate(290.18 591) scale(0.008301 -0.008301)"/><path d="M201 1493H403V170H1130V0H201Z" transform="translate(302.84 591) scale(0.008301 -0.008301)"/><path d="M201 1493H1145V1323H403V881H1114V711H403V170H1163V0H201Z" transform="translate(313.31 591) scale(0.008301 -0.008301)"/><path d="M219 254H430V0H219Z" transform="translate(325.05 591) scale(0.008301 -0.008301)"/></g></g></svg>